<svg width="80" height="80" aria-label="A chart." style="overflow: hidden;"><defs id="defs"></defs><g><path d="M41,41L37.09338936582025,17.32008459996291A24,24,0,0,1,41,17L41,41A0,0,0,0,0,41,41" stroke="none" stroke-width="0" fill="#f15f43"></path></g><g><path d="M41,41L23.881443511489437,24.178732992141377A24,24,0,0,1,37.09338936582025,17.32008459996291L41,41A0,0,0,0,0,41,41" stroke="none" stroke-width="0" fill="#ffcb05"></path></g><g><path d="M41,41L41,17A24,24,0,1,1,23.881443511489437,24.178732992141377L41,41A0,0,0,1,0,41,41" stroke="none" stroke-width="0" fill="#a6ce39"></path></g><g></g></svg>
